<svg width="1440" height="1400" viewBox="0 0 1440 1400" fill="none" xmlns="http://www.w3.org/2000/svg">
<path opacity="0.08" d="M-1.5 126.092C61.5 46.7688 340.4 -73.683 578 63.1001C875 234.079 830 284.573 953 301.071C1126.15 324.295 1416.17 203.249 1560.5 142.09M1508.5 488.047C1441.83 410.39 1270.1 278.373 1116.5 371.562C924.5 488.047 746.5 459.051 646 301.071C546.975 145.409 249 -56.8851 -6 150.089M1508.5 638.029C1417.5 709.52 1321.7 794.01 994.5 638.029C585.5 443.053 257.5 932.992 -82 830.005M-59.5 1151.97C78 1319.78 339.2 1525.04 606 1296.45C896 1047.98 1139.5 1157.96 1298 1192.46C1421.8 1219.4 1696 1144.97 1696 1063.98" stroke="#0E6600" stroke-width="2"/>
</svg>
