<svg width="20" height="12" viewBox="0 0 20 12" fill="none" xmlns="http://www.w3.org/2000/svg">
<path d="M15.935 11.3283L19.2008 8.06249C19.7311 7.50677 20.027 6.76814 20.027 5.99999C20.027 5.23184 19.7311 4.4932 19.2008 3.93749L15.935 0.671654C15.7006 0.437158 15.3827 0.305376 15.0511 0.305298C14.7196 0.30522 14.4016 0.436852 14.1671 0.671237C13.9326 0.905622 13.8008 1.22356 13.8007 1.55511C13.8007 1.88666 13.9323 2.20466 14.1667 2.43915L16.4833 4.75665L1.275 4.77582C0.943481 4.77582 0.625539 4.90752 0.391118 5.14194C0.156698 5.37636 0.0250015 5.6943 0.0250015 6.02582C0.0250015 6.35734 0.156698 6.67528 0.391118 6.9097C0.625539 7.14412 0.943481 7.27582 1.275 7.27582L16.4675 7.25665L14.1667 9.56082C13.939 9.79657 13.813 10.1123 13.8158 10.4401C13.8187 10.7678 13.9501 11.0813 14.1819 11.3131C14.4137 11.5449 14.7272 11.6763 15.0549 11.6792C15.3827 11.682 15.6984 11.556 15.9342 11.3283H15.935Z" fill="white"/>
</svg>
