<svg width="16" height="10" viewBox="0 0 16 10" fill="none" xmlns="http://www.w3.org/2000/svg">
<path d="M12.748 9.26267L15.3607 6.65C15.7849 6.20543 16.0216 5.61452 16.0216 5C16.0216 4.38548 15.7849 3.79457 15.3607 3.35L12.748 0.737334C12.5605 0.549737 12.3061 0.444311 12.0409 0.444249C11.7757 0.444186 11.5213 0.549492 11.3337 0.737001C11.1461 0.924509 11.0406 1.17886 11.0406 1.4441C11.0405 1.70934 11.1458 1.96374 11.3333 2.15133L13.1867 4.00533L1.01999 4.02067C0.754772 4.02067 0.500419 4.12602 0.312882 4.31356C0.125346 4.5011 0.019989 4.75545 0.019989 5.02067C0.019989 5.28588 0.125346 5.54024 0.312882 5.72777C0.500419 5.91531 0.754772 6.02067 1.01999 6.02067L13.174 6.00533L11.3333 7.84867C11.1512 8.03727 11.0504 8.28987 11.0526 8.55207C11.0549 8.81426 11.1601 9.06508 11.3455 9.25049C11.5309 9.43589 11.7817 9.54106 12.0439 9.54334C12.3061 9.54562 12.5587 9.44482 12.7473 9.26267H12.748Z" fill="#0E6600"/>
</svg>
