<svg width="10" height="14" viewBox="0 0 10 14" fill="none" xmlns="http://www.w3.org/2000/svg">
<path d="M9.37429 10.8713L9.08232 10.3837C8.55722 9.51798 7.83253 8.5243 6.88198 8.5243C6.70587 8.5243 6.53147 8.55973 6.35884 8.63146L5.84864 8.85025C5.80204 8.86957 5.75677 8.89154 5.70884 8.91484C5.57826 8.97836 5.43019 9.05028 5.27789 9.05028C4.90219 9.05028 4.46688 8.56137 4.05235 7.67364C3.64552 6.80233 3.67147 6.34555 3.76486 6.11571C3.86791 5.86213 4.10754 5.75372 4.36497 5.65629C4.40077 5.64271 4.4331 5.6304 4.46455 5.61745L4.98118 5.39992C6.32714 4.83707 5.82642 2.8701 5.66224 2.22522L5.52301 1.67076C5.40399 1.2138 5.0884 0 4.04162 0C3.84783 0 3.6411 0.0451472 3.42736 0.134242C3.28712 0.189934 1.35722 0.977706 0.658036 2.36167C-0.177598 4.00901 -0.0230874 6.21807 1.11683 8.92608C2.24823 11.6375 3.71536 13.296 5.47749 13.8553C5.77975 13.9513 6.12136 13.9999 6.49289 13.9999C6.49289 13.9999 6.49302 13.9999 6.49308 13.9999C7.70915 13.9999 8.90956 13.4825 9.00699 13.4396C9.42626 13.262 9.69727 12.992 9.81244 12.6372C10.0077 12.0356 9.68016 11.3763 9.37429 10.8713ZM8.91145 12.3449C8.88468 12.4274 8.79161 12.5026 8.63501 12.5685C8.63243 12.5697 8.62927 12.571 8.62662 12.5722C8.61576 12.577 7.52919 13.0529 6.49283 13.0529C6.21866 13.0529 5.97347 13.0191 5.76409 12.9526C4.27954 12.4813 3.01011 11.004 1.99029 8.56004C0.96289 6.11912 0.798718 4.17786 1.50302 2.78947C2.0499 1.70701 3.76202 1.02033 3.77881 1.01376C3.78222 1.01237 3.78557 1.01105 3.78892 1.00966C3.88641 0.96874 3.9738 0.947145 4.04162 0.947145C4.2503 0.947145 4.44024 1.27082 4.60529 1.90521L4.74389 2.45734C5.04294 3.6318 4.99741 4.3664 4.61457 4.52653L4.1004 4.74311C4.07994 4.75157 4.05601 4.76048 4.02962 4.77052C3.7456 4.87805 3.15458 5.1017 2.8873 5.75915C2.64477 6.35572 2.74516 7.11306 3.19392 8.07447C3.79833 9.36846 4.47995 9.99749 5.27777 9.99749C5.64804 9.99749 5.94525 9.85302 6.12281 9.76677C6.15552 9.75086 6.18475 9.73627 6.2162 9.72326L6.72715 9.50416C6.77987 9.48218 6.83051 9.47151 6.88191 9.47151C7.12785 9.47151 7.56885 9.71505 8.27112 10.8727L8.56291 11.3599C8.9225 11.9537 8.95092 12.2233 8.91145 12.3449Z" fill="#0E6600"/>
</svg>
