<svg width="15" height="15" viewBox="0 0 15 15" fill="none" xmlns="http://www.w3.org/2000/svg">
<path d="M2.96875 15H12.0312C13.6681 15 15 13.6681 15 12.0312V2.96875C15 1.33188 13.6681 0 12.0312 0H2.96875C1.33188 0 0 1.33188 0 2.96875V12.0312C0 13.6681 1.33188 15 2.96875 15ZM0.9375 2.96875C0.9375 1.84875 1.84875 0.9375 2.96875 0.9375H12.0312C13.1512 0.9375 14.0625 1.84875 14.0625 2.96875V12.0312C14.0625 13.1512 13.1512 14.0625 12.0312 14.0625H2.96875C1.84875 14.0625 0.9375 13.1512 0.9375 12.0312V2.96875Z" fill="#D9D9D9"/>
<path d="M7.50001 11.3313C9.61251 11.3313 11.3313 9.61257 11.3313 7.50007C11.3313 5.38757 9.61251 3.66882 7.50001 3.66882C5.38751 3.66882 3.66876 5.38757 3.66876 7.50007C3.66876 9.61257 5.38751 11.3313 7.50001 11.3313ZM7.50001 4.60632C9.09564 4.60632 10.3938 5.90445 10.3938 7.50007C10.3938 9.0957 9.09564 10.3938 7.50001 10.3938C5.90439 10.3938 4.60626 9.0957 4.60626 7.50007C4.60626 5.90445 5.90439 4.60632 7.50001 4.60632Z" fill="#D9D9D9"/>
<path d="M11.4737 4.60145C12.09 4.60145 12.5544 4.13895 12.5544 3.52582C12.5544 2.88645 12.0656 2.4502 11.4744 2.4502C10.8581 2.4502 10.3937 2.9127 10.3937 3.52582C10.3937 4.16395 10.88 4.60145 11.4737 4.60145ZM11.5844 3.4227C11.7819 3.59707 11.3312 3.80895 11.3312 3.52645C11.3312 3.3577 11.5606 3.40145 11.5844 3.4227Z" fill="#D9D9D9"/>
</svg>
