<svg width="15" height="15" viewBox="0 0 15 15" fill="none" xmlns="http://www.w3.org/2000/svg">
<g clip-path="url(#clip0_12_628)">
<path d="M5.70751 13.7024C3.204 13.7024 1.22531 13.265 0.278658 12.5026L0.260232 12.4877L0.243524 12.471C0.0186475 12.246 -0.0550526 11.9508 0.0415356 11.6613L0.0503476 11.6373C0.167535 11.3442 0.454668 11.1469 0.765833 11.1451C1.40625 11.134 1.96655 11.0576 2.47501 10.9094C1.66397 10.5322 1.10057 9.87912 0.765375 8.93384C0.652651 8.63904 0.749926 8.3122 1.00971 8.11731C1.07379 8.06913 1.14624 8.03273 1.22291 8.00836C0.772242 7.48811 0.439333 6.89611 0.252908 6.27L0.247072 6.25055L0.243066 6.23063C0.17978 5.91397 0.321344 5.58839 0.580782 5.4482C0.689615 5.38571 0.807833 5.35333 0.926508 5.35058C0.798563 5.07501 0.705523 4.79211 0.650362 4.50749C0.49724 3.71877 0.623583 2.9281 1.02573 2.15745L1.11877 1.97137C1.19327 1.82248 1.33564 1.71788 1.49974 1.69122C1.66385 1.66467 1.83208 1.71891 1.94961 1.83644L2.1191 2.00616C3.45806 3.40989 4.6574 4.07594 6.73096 4.53164C6.82354 3.7357 7.16767 2.99584 7.72282 2.41357C8.38349 1.72074 9.26571 1.33199 10.207 1.31871H10.2132C10.8999 1.31871 11.7518 1.71079 12.267 1.98728C12.709 1.84262 13.2415 1.61866 13.794 1.38188C14.0526 1.26058 14.3713 1.31608 14.5745 1.51933C14.7738 1.71857 14.829 1.99952 14.7233 2.27258C14.6831 2.38439 14.6376 2.49414 14.5869 2.60148C14.6625 2.63616 14.7318 2.68319 14.7902 2.74167C14.9671 2.91848 15.0408 3.1952 14.9779 3.44674L14.9712 3.47066C14.7595 4.15296 14.3527 4.70868 13.8149 5.0575C13.725 9.84124 10.1226 13.7024 5.70751 13.7024ZM1.1222 12.0126C2.01427 12.5173 3.71429 12.8227 5.70751 12.8227C7.62383 12.8227 9.43223 11.9999 10.7995 10.506C12.1779 8.99987 12.937 6.99979 12.937 4.87416V4.85025C12.937 4.65776 13.043 4.48209 13.2135 4.39168C13.5594 4.20846 13.8396 3.89638 14.0218 3.49732C13.8339 3.52696 13.6429 3.45155 13.5258 3.29431C13.3897 3.11154 13.3882 2.86469 13.522 2.68033C13.5942 2.58077 13.6597 2.4772 13.718 2.37008C13.2409 2.57047 12.7879 2.75014 12.3945 2.8695C12.2516 2.91276 12.0923 2.89582 11.9617 2.82292C11.2615 2.43279 10.6093 2.19956 10.216 2.19842C8.76503 2.22062 7.58526 3.46334 7.58526 4.97006C7.58526 5.12582 7.51614 5.27185 7.39586 5.37084C7.27547 5.46971 7.11891 5.50931 6.96602 5.4791C4.57512 5.00806 3.15834 4.30173 1.68502 2.82121C1.47388 3.32715 1.4162 3.83676 1.51382 4.33995C1.61281 4.84967 1.87614 5.36042 2.27542 5.81693C2.42717 5.99019 2.44732 6.23807 2.32555 6.43365C2.20424 6.62854 1.97364 6.71964 1.75197 6.66024C1.57871 6.61378 1.41941 6.55278 1.26834 6.47439C1.57608 7.14284 2.10537 7.76105 2.77073 8.21698C2.96356 8.34916 3.04413 8.59555 2.96676 8.8162C2.88929 9.03718 2.67288 9.17943 2.43896 9.16204C2.1841 9.14315 1.95831 9.09475 1.75048 9.01315C2.12356 9.77292 2.71969 10.191 3.63807 10.3507C3.85677 10.3888 4.02706 10.5615 4.06185 10.7805C4.09675 10.9994 3.98838 11.2164 3.79234 11.3204C3.00956 11.7354 2.154 11.9581 1.1222 12.0126Z" fill="#D9D9D9"/>
</g>
<defs>
<clipPath id="clip0_12_628">
<rect width="15" height="15" fill="white"/>
</clipPath>
</defs>
</svg>
