<svg width="18" height="24" viewBox="0 0 18 24" fill="none" xmlns="http://www.w3.org/2000/svg">
<path d="M14.6171 0C14.6171 0 12.6425 1.91577 10.5069 2.68814C-5.30764 8.40832 1.36202 19.5554 1.57961 19.5921C1.57961 19.5921 2.46641 18.0478 3.66434 17.1669C11.2659 11.5786 12.811 5.14624 12.811 5.14624C12.811 5.14624 11.1052 12.8865 4.3424 17.7027C2.84875 18.7658 1.83737 21.3836 1.40925 24C1.40925 24 2.46802 23.5722 2.92331 23.4564C3.10085 22.2978 3.47204 21.1884 4.09961 20.1973C13.5514 21.3227 16.647 13.7066 17.0514 11.0509C18.0059 4.77875 14.6171 0 14.6171 0Z" fill="#0E6600"/>
</svg>
