<svg width="15" height="15" viewBox="0 0 15 15" fill="none" xmlns="http://www.w3.org/2000/svg">
<g clip-path="url(#clip0_12_621)">
<path d="M9.80881 6.82587L6.49494 5.01267C6.30439 4.90841 6.07917 4.9123 5.8924 5.02297C5.70552 5.13375 5.59406 5.32944 5.59406 5.54665V9.14193C5.59406 9.3581 5.70483 9.55345 5.89046 9.66435C5.98739 9.72226 6.09485 9.75132 6.20254 9.75132C6.30119 9.75132 6.40006 9.72695 6.49104 9.67797L9.80503 7.89601C10.0018 7.79015 10.1246 7.58564 10.1255 7.36214C10.1263 7.13864 10.005 6.93321 9.80881 6.82587ZM6.47308 8.68965V6.00258L8.94981 7.35779L6.47308 8.68965Z" fill="#D9D9D9"/>
<path d="M14.8896 4.49774L14.8889 4.49087C14.8762 4.37014 14.7498 3.29623 14.2277 2.75C13.6243 2.10754 12.9401 2.02949 12.6111 1.99206C12.5839 1.98897 12.5589 1.98611 12.5366 1.98314L12.5104 1.98039C10.5274 1.8362 7.53259 1.81651 7.5026 1.8164L7.49997 1.81628L7.49734 1.8164C7.46735 1.81651 4.47256 1.8362 2.47169 1.98039L2.44525 1.98314C2.42396 1.986 2.4005 1.98863 2.37498 1.99161C2.04974 2.02914 1.37294 2.10731 0.767781 2.77301C0.270537 3.31339 0.1268 4.3643 0.112037 4.4824L0.110321 4.49774C0.105857 4.54798 0 5.744 0 6.9447V8.06714C0 9.26785 0.105857 10.4639 0.110321 10.5142L0.111122 10.5218C0.123825 10.6406 0.250167 11.6948 0.769841 12.2412C1.33724 12.8622 2.05466 12.9444 2.44056 12.9885C2.50155 12.9955 2.55408 13.0015 2.5899 13.0078L2.62458 13.0126C3.76955 13.1215 7.35944 13.1752 7.51164 13.1774L7.51622 13.1775L7.5208 13.1774C7.55078 13.1772 10.5455 13.1576 12.5285 13.0134L12.5547 13.0106C12.5798 13.0073 12.6079 13.0043 12.6388 13.0011C12.9622 12.9668 13.6354 12.8955 14.2322 12.2388C14.7294 11.6983 14.8733 10.6474 14.8879 10.5294L14.8896 10.5141C14.8941 10.4637 15.0001 9.26785 15.0001 8.06714V6.9447C14.9999 5.744 14.8941 4.54809 14.8896 4.49774ZM14.1209 8.06714C14.1209 9.17847 14.0239 10.323 14.0147 10.428C13.9774 10.7175 13.8258 11.3824 13.5835 11.6457C13.21 12.0566 12.8263 12.0974 12.5461 12.127C12.5122 12.1306 12.4809 12.134 12.4525 12.1376C10.5345 12.2763 7.65275 12.2975 7.52 12.2983C7.37111 12.2962 3.83376 12.242 2.72368 12.1389C2.66681 12.1297 2.60535 12.1226 2.54058 12.1152C2.21202 12.0776 1.76227 12.0261 1.41643 11.6457L1.4083 11.637C1.17027 11.389 1.02298 10.7672 0.985561 10.4315C0.97858 10.3521 0.879017 9.19403 0.879017 8.06714V6.9447C0.879017 5.83463 0.975834 4.69137 0.985218 4.58414C1.02974 4.24322 1.18423 3.61861 1.41643 3.36615C1.80141 2.94272 2.20733 2.8958 2.47581 2.86479C2.50144 2.86181 2.52536 2.85907 2.54744 2.8562C4.49339 2.71682 7.39583 2.6961 7.49997 2.6953C7.60411 2.69599 10.5055 2.71682 12.4342 2.8562C12.4579 2.85918 12.4837 2.86216 12.5115 2.86536C12.7877 2.89683 13.2051 2.94444 13.5881 3.35299L13.5916 3.35677C13.8297 3.60476 13.977 4.23739 14.0144 4.57991C14.021 4.65487 14.1209 5.81541 14.1209 6.9447V8.06714Z" fill="#D9D9D9"/>
</g>
<defs>
<clipPath id="clip0_12_621">
<rect width="15" height="15" fill="white"/>
</clipPath>
</defs>
</svg>
