<svg width="14" height="14" viewBox="0 0 14 14" fill="none" xmlns="http://www.w3.org/2000/svg">
<path d="M11.0833 0.583344H2.91667C2.1434 0.58427 1.40208 0.891858 0.855295 1.43864C0.308514 1.98542 0.00092625 2.72675 0 3.50001L0 10.5C0.00092625 11.2733 0.308514 12.0146 0.855295 12.5614C1.40208 13.1082 2.1434 13.4158 2.91667 13.4167H11.0833C11.8566 13.4158 12.5979 13.1082 13.1447 12.5614C13.6915 12.0146 13.9991 11.2733 14 10.5V3.50001C13.9991 2.72675 13.6915 1.98542 13.1447 1.43864C12.5979 0.891858 11.8566 0.58427 11.0833 0.583344ZM2.91667 1.75001H11.0833C11.4326 1.7507 11.7737 1.85589 12.0627 2.05206C12.3517 2.24823 12.5754 2.5264 12.705 2.85076L8.23783 7.31851C7.90908 7.64594 7.46399 7.82978 7 7.82978C6.53601 7.82978 6.09092 7.64594 5.76217 7.31851L1.295 2.85076C1.42459 2.5264 1.64827 2.24823 1.93728 2.05206C2.22628 1.85589 2.56738 1.7507 2.91667 1.75001ZM11.0833 12.25H2.91667C2.45254 12.25 2.00742 12.0656 1.67923 11.7374C1.35104 11.4093 1.16667 10.9641 1.16667 10.5V4.37501L4.93733 8.14334C5.48487 8.68949 6.22665 8.9962 7 8.9962C7.77335 8.9962 8.51513 8.68949 9.06267 8.14334L12.8333 4.37501V10.5C12.8333 10.9641 12.649 11.4093 12.3208 11.7374C11.9926 12.0656 11.5475 12.25 11.0833 12.25Z" fill="#0E6600"/>
</svg>
